# xmcd CD database file
#
# Track frame offsets:
#	150
#	24887
#	62680
#	82705
#	105290
#	134100
#	170462
#	211385
#	237137
#	261665
#	281675
#
# Disc length: 4033 seconds
#
# Revision: 0
# Processed by: cddbd v1.5.1PL0 Copyright (c) Steve Scherf et al.
# Submitted via: CDex 1.51
#
DISCID=930fbf0b
DTITLE=Yoav Polachek - Standards First
DYEAR=1999
DGENRE=Jazz
TTITLE0=Beyond Recall
TTITLE1=Fragile
TTITLE2=Ask Me Now
TTITLE3=Peggy's Blue Starlight
TTITLE4=Moon And Sand
TTITLE5=Let's Cool One
TTITLE6=Body And Soul
TTITLE7=Society Red
TTITLE8=Con Alma
TTITLE9=Last Minute Blues
TTITLE10=Beyond Recall (alternate take)
EXTD=YEAR: 1999
EXTT0=
EXTT1=
EXTT2=
EXTT3=
EXTT4=
EXTT5=
EXTT6=
EXTT7=
EXTT8=
EXTT9=
EXTT10=
PLAYORDER=
